#!OML:ASF H:\ManfredETheater\Project 1\Capture day 1\Session 1\subject.ASF
:FULLY-SPECIFIED
:DEGREES
242
root 2.16804 15.8108 9.59923 -151.675 -4.40049 177.181
lowerback 19.1341 0.669546 0.979233
upperback 1.80782 0.8095 0.260756
thorax -8.75682 0.228275 -0.46773
lowerneck -14.6002 -3.27716 -3.99758
upperneck -7.15208 -4.70713 3.81182
head 0.366854 -2.65763 1.66089
rclavicle 1.19271e-015 -1.98785e-014
rhumerus -32.9694 10.8021 -91.1996
rradius 95.5103
rwrist -14.3899
rhand -26.6981 9.36477
rfingers 7.12502
rthumb -0.128496 -20.6149
lclavicle 1.19271e-015 -1.98785e-014
lhumerus -57.5373 -5.50319 93.49
lradius 90.9293
lwrist 11.5126
lhand -28.0304 -4.8226
lfingers 7.12502
lthumb -1.41524 25.1524
rfemur -24.6149 -6.59287 21.1849
rtibia 80.5705
rfoot 7.32959 -9.64165
rtoes 7.85072
lfemur -57.2135 -0.748181 -26.3489
ltibia 74.7723
lfoot -27.1948 -6.75853
ltoes -12.7991
243
root 2.17543 15.7678 9.19301 -151.446 -4.4495 176.458
lowerback 19.2634 0.430027 0.378255
upperback 1.74299 0.35597 0.0752924
thorax -8.90897 0.0320817 -0.208518
lowerneck -14.6637 -3.09112 -3.95224
upperneck -7.77345 -4.54238 3.81279
head 0.166702 -2.61535 1.66738
rclavicle -1.15295e-014 1.98785e-015
rhumerus -35.0397 9.14073 -91.7089
rradius 91.4167
rwrist -14.5911
rhand -27.4445 9.56571
rfingers 7.12502
rthumb -0.849438 -20.4123
lclavicle -1.15295e-014 1.98785e-015
lhumerus -54.5609 -5.79758 94.5645
lradius 90.5854
lwrist 11.4892
lhand -28.1329 -5.04198
lfingers 7.12502
lthumb -1.51429 24.9324
rfemur -28.5468 -7.56357 20.4337
rtibia 84.9578
rfoot 4.66617 -8.52803
rtoes 6.80888
lfemur -55.4191 -1.10741 -26.7758
ltibia 74.4162
lfoot -28.2029 -6.9177
ltoes -13.4555
244
root 2.18219 15.7227 8.78598 -151.168 -4.51334 175.824
lowerback 19.3374 0.176731 -0.154596
upperback 1.65108 -0.0974007 -0.0620417
thorax -9.05379 -0.163501 0.0660935
lowerneck -14.7576 -2.89673 -3.94714
upperneck -8.32862 -4.35799 3.85038
head -0.00517815 -2.56085 1.69298
rclavicle -1.11319e-014 -1.98785e-015
rhumerus -37.0549 7.38555 -91.875
rradius 87.1583
rwrist -14.8291
rhand -28.3477 9.77843
rfingers 7.12502
rthumb -1.72169 -20.1944
lclavicle -1.11319e-014 -1.98785e-015
lhumerus -51.4579 -6.22895 95.6381
lradius 90.3901
lwrist 11.7354
lhand -28.2011 -5.36344
lfingers 7.12502
lthumb -1.58015 24.6105
rfemur -32.6944 -8.47981 19.8217
rtibia 89.0437
rfoot 2.0403 -7.45752
rtoes 5.72294
lfemur -53.6659 -1.34734 -27.1307
ltibia 73.9906
lfoot -29.1271 -7.25026
ltoes -13.8967
245
root 2.18889 15.6759 8.37717 -150.869 -4.61496 175.259
lowerback 19.3778 -0.0980215 -0.61388
upperback 1.53647 -0.560021 -0.165226
thorax -9.19882 -0.363565 0.339647
lowerneck -14.9027 -2.7087 -3.97833
upperneck -8.77776 -4.16858 3.94669
head -0.132055 -2.49909 1.74262
rclavicle 2.38542e-015 1.07344e-014
rhumerus -39.072 5.57948 -91.701
rradius 82.8856
rwrist -15.1818
rhand -29.3455 9.96533
rfingers 7.12502
rthumb -2.68543 -19.9975
lclavicle 2.38542e-015 1.07344e-014
lhumerus -48.2907 -6.81074 96.655
lradius 90.4668
lwrist 12.1849
lhand -28.1896 -5.7536
lfingers 7.12502
lthumb -1.56906 24.2204
rfemur -37.0063 -9.35751 19.3478
rtibia 92.7813
rfoot -0.518843 -6.44094
rtoes 4.74072
lfemur -51.9054 -1.48844 -27.4255
ltibia 73.4777
lfoot -29.9532 -7.73233
ltoes -14.1184
246
root 2.196 15.6293 7.96445 -150.588 -4.77955 174.734
lowerback 19.4157 -0.397657 -0.997595
upperback 1.41134 -1.03809 -0.245162
thorax -9.34867 -0.572021 0.600794
lowerneck -15.1276 -2.53993 -4.03845
upperneck -9.08455 -3.98786 4.10559
head -0.197654 -2.43507 1.81491
rclavicle -1.86858e-014 3.57812e-015
rhumerus -41.1616 3.77676 -91.2023
rradius 78.7908
rwrist -15.6615
rhand -30.3775 10.1076
rfingers 7.12502
rthumb -3.68202 -19.8403
lclavicle -1.86858e-014 3.57812e-015
lhumerus -45.1152 -7.55225 97.5782
lradius 90.9191
lwrist 12.7043
lhand -28.0912 -6.18961
lfingers 7.12502
lthumb -1.47402 23.785
rfemur -41.4075 -10.2154 19.0027
rtibia 96.1196
rfoot -2.98423 -5.50097
rtoes 3.61332
lfemur -50.067 -1.56319 -27.6629
ltibia 72.8467
lfoot -30.678 -8.3473
ltoes -14.1812
247
root 2.20402 15.5844 7.54575 -150.353 -5.03183 174.241
lowerback 19.4747 -0.721188 -1.29222
upperback 1.28305 -1.52836 -0.304212
thorax -9.50976 -0.788289 0.838912
lowerneck -15.4096 -2.40123 -4.12888
upperneck -9.26554 -3.8297 4.32213
head -0.210657 -2.37533 1.90866
rclavicle 5.96354e-015 -6.75868e-015
rhumerus -43.4213 2.02973 -90.4039
rradius 75.1048
rwrist -16.2211
rhand -31.3498 10.3009
rfingers 7.12502
rthumb -4.62087 -19.6287
lclavicle 5.96354e-015 -6.75868e-015
lhumerus -41.9821 -8.44611 98.3855
lradius 91.821
lwrist 13.0968
lhand -27.9137 -6.65999
lfingers 7.12502
lthumb -1.30256 23.3158
rfemur -45.8286 -11.0599 18.79
rtibia 99.0105
rfoot -5.33248 -4.67986
rtoes 2.3951
lfemur -48.0938 -1.60481 -27.8229
ltibia 72.063
lfoot -31.2967 -9.08046
ltoes -14.1586
248
root 2.21327 15.5437 7.11913 -150.166 -5.38932 173.783
lowerback 19.5516 -1.06488 -1.48631
upperback 1.1538 -2.02152 -0.332223
thorax -9.67954 -1.00818 1.05639
lowerneck -15.7628 -2.30249 -4.23465
upperneck -9.31826 -3.71071 4.55024
head -0.168602 -2.32852 2.00538
rclavicle 9.14409e-015 -7.55382e-015
rhumerus -45.9366 0.40655 -89.3289
rradius 72.0675
rwrist -16.7297
rhand -32.1675 10.5197
rfingers 7.12502
rthumb -5.41045 -19.3912
lclavicle 9.14409e-015 -7.55382e-015
lhumerus -38.922 -9.47579 99.0773
lradius 93.2138
lwrist 13.2285
lhand -27.6894 -7.06262
lfingers 7.12502
lthumb -1.08592 22.9144
rfemur -50.2279 -11.8782 18.723
rtibia 101.413
rfoot -7.55646 -4.04308
rtoes 1.05558
lfemur -45.9653 -1.64416 -27.8743
ltibia 71.0844
lfoot -31.7906 -9.94038
ltoes -14.0783
249
root 2.2234 15.5095 6.68268 -150.019 -5.8546 173.364
lowerback 19.6356 -1.42512 -1.57595
upperback 1.02057 -2.50903 -0.317502
thorax -9.85701 -1.22731 1.2616
lowerneck -16.1566 -2.23796 -4.3453
upperneck -9.27409 -3.62779 4.74605
head -0.0876397 -2.29431 2.08975
rclavicle 7.35503e-015 1.09332e-014
rhumerus -48.7834 -0.999484 -88.0276
rradius 69.8766
rwrist -17.0872
rhand -32.8193 10.8465
rfingers 7.12502
rthumb -6.03972 -19.0474
lclavicle 7.35503e-015 1.09332e-014
lhumerus -35.9571 -10.6117 99.6598
lradius 95.1053
lwrist 13.0572
lhand -27.4352 -7.37394
lfingers 7.12502
lthumb -0.840383 22.6041
rfemur -54.5656 -12.6487 18.7997
rtibia 103.293
rfoot -9.65066 -3.6325
rtoes -0.349105
lfemur -43.6725 -1.70721 -27.7966
ltibia 69.8728
lfoot -32.1384 -10.9093
ltoes -14.0074
250
root 2.23391 15.4841 6.2347 -149.898 -6.41714 172.992
lowerback 19.7102 -1.79762 -1.56763
upperback 0.882502 -2.98326 -0.244477
thorax -10.0345 -1.44148 1.47283
lowerneck -16.587 -2.19336 -4.44977
upperneck -9.15755 -3.56732 4.86153
head 0.0218305 -2.26804 2.14477
rclavicle -7.95139e-016 -3.97569e-016
rhumerus -51.9847 -2.09061 -86.5644
rradius 68.655
rwrist -17.2411
rhand -33.2462 11.2488
rfingers 7.12502
rthumb -6.45186 -18.6329
lclavicle -7.95139e-016 -3.97569e-016
lhumerus -33.0952 -11.8214 100.137
lradius 97.4882
lwrist 12.7056
lhand -27.1784 -7.55542
lfingers 7.12502
lthumb -0.592421 22.4235
rfemur -58.8049 -13.3459 19.0092
rtibia 104.632
rfoot -11.6074 -3.47878
rtoes -1.88813
lfemur -41.2193 -1.81353 -27.5772
ltibia 68.3975
lfoot -32.3008 -11.9821
ltoes -13.9571
